#!OML:ASF H:\Dans Jumps\Project 1\Capture day 1\Session 1\subject.ASF
:FULLY-SPECIFIED
:DEGREES
342
root 0.671938 17.5999 -3.81215 0.53738 -2.93436 0.372856
lowerback 3.57486 -1.14249 -1.47403
upperback 3.57864 -1.57015 1.29356
thorax 1.74811 -0.835848 2.18446
lowerneck -9.60699 1.12703 -1.7379
upperneck 33.8895 2.03945 -0.153786
head 12.8622 0.637548 0.516731
rclavicle 7.65321e-015 -2.78299e-015
rhumerus -28.7307 -13.4206 -80.2057
rradius 22.3104
rwrist 36.2711
rhand -19.3474 -26.8031
rfingers 7.12502
rthumb 6.96983 -56.6684
lclavicle 7.65321e-015 -2.78299e-015
lhumerus -18.6538 5.4344 84.3588
lradius 14.8702
lwrist 6.0766
lhand -23.4975 -6.37704
lfingers 7.12502
lthumb 2.96267 23.5821
rfemur -24.1482 -0.386668 17.0365
rtibia 35.2163
rfoot -2.10366 6.60391
rtoes 12.4393
lfemur -18.8788 10.1672 -18.7659
ltibia 32.1181
lfoot -11.7364 -3.03371
ltoes -2.44773
343
root 0.662465 17.3688 -3.69537 0.113077 -3.00052 0.517894
lowerback 3.79293 -1.11215 -1.64206
upperback 3.46801 -1.53488 1.24176
thorax 1.51377 -0.817695 2.23117
lowerneck -10.0424 1.13091 -1.70572
upperneck 34.093 2.04491 -0.126361
head 13.0432 0.642994 0.527973
rclavicle -7.30534e-015 9.14409e-015
rhumerus -28.6733 -13.7924 -80.0516
rradius 22.25
rwrist 36.7122
rhand -19.5622 -27.1122
rfingers 7.12502
rthumb 6.76242 -56.9842
lclavicle -7.30534e-015 9.14409e-015
lhumerus -18.4311 5.99852 83.8709
lradius 14.7587
lwrist 5.42523
lhand -24.1939 -6.63655
lfingers 7.12502
lthumb 2.29008 23.3309
rfemur -24.332 -0.187954 16.9539
rtibia 37.7062
rfoot -7.07011 4.40738
rtoes 7.19595
lfemur -18.8739 10.3319 -18.7436
ltibia 34.328
lfoot -14.8747 -2.47924
ltoes -1.70794
344
root 0.652497 17.1708 -3.58809 -0.18039 -3.0532 0.675525
lowerback 3.96493 -1.09035 -1.83646
upperback 3.36548 -1.51244 1.2002
thorax 1.31528 -0.8066 2.30221
lowerneck -10.4785 1.14001 -1.68374
upperneck 34.2574 2.06719 -0.121731
head 13.2091 0.652141 0.53434
rclavicle -1.44119e-014 5.1684e-015
rhumerus -28.4555 -14.4043 -79.836
rradius 22.0804
rwrist 37.3293
rhand -19.7769 -27.4463
rfingers 7.12502
rthumb 6.55523 -57.3248
lclavicle -1.44119e-014 5.1684e-015
lhumerus -18.1079 6.98807 83.3338
lradius 14.5673
lwrist 4.42112
lhand -25.0915 -7.04151
lfingers 7.12502
lthumb 1.42318 22.9335
rfemur -24.7257 -0.0444702 16.8621
rtibia 40.0994
rfoot -10.7321 3.52653
rtoes 7.90822
lfemur -19.0679 10.5551 -18.8401
ltibia 36.3809
lfoot -17.2291 -1.96928
ltoes -1.71713
345
root 0.643398 17.0053 -3.48904 -0.33686 -3.0739 0.842299
lowerback 4.05637 -1.08295 -2.04026
upperback 3.27823 -1.50936 1.1704
thorax 1.17918 -0.80593 2.38908
lowerneck -10.8861 1.15143 -1.68519
upperneck 34.3745 2.10185 -0.131104
head 13.3491 0.662621 0.540625
rclavicle -5.36719e-015 9.14409e-015
rhumerus -28.1048 -15.2258 -79.569
rradius 21.8488
rwrist 38.0454
rhand -19.9762 -27.7566
rfingers 7.12502
rthumb 6.36275 -57.641
lclavicle -5.36719e-015 9.14409e-015
lhumerus -17.7174 8.35508 82.7844
lradius 14.3376
lwrist 3.19453
lhand -26.1404 -7.58349
lfingers 7.12502
lthumb 0.410131 22.3959
rfemur -25.2942 0.0158718 16.771
rtibia 42.324
rfoot -13.5726 2.61274
rtoes 7.75138
lfemur -19.4654 10.7088 -19.0501
ltibia 38.3414
lfoot -18.6665 -1.45996
ltoes -2.78061
346
root 0.636264 16.8725 -3.39697 -0.389688 -3.05144 0.999415
lowerback 4.07437 -1.09099 -2.22615
upperback 3.21496 -1.52569 1.15926
thorax 1.11 -0.815662 2.48369
lowerneck -11.232 1.17323 -1.67278
upperneck 34.4506 2.16399 -0.192513
head 13.4593 0.680892 0.527122
rclavicle -1.04362e-014 1.47101e-014
rhumerus -27.6625 -16.1947 -79.2703
rradius 21.5991
rwrist 38.7466
rhand -20.1469 -28.0333
rfingers 7.12502
rthumb 6.19802 -57.9226
lclavicle -1.04362e-014 1.47101e-014
lhumerus -17.3004 9.96264 82.282
lradius 14.1118
lwrist 1.98998
lhand -27.2994 -8.29748
lfingers 7.12502
lthumb -0.709294 21.6811
rfemur -25.9465 0.0346981 16.6802
rtibia 44.3577
rfoot -15.6117 1.73808
rtoes 7.43661
lfemur -20.0341 10.6371 -19.3178
ltibia 40.2787
lfoot -19.1817 -1.02111
ltoes -4.67446
347
root 0.631578 16.769 -3.3111 -0.40715 -2.95867 1.10721
lowerback 4.06823 -1.12062 -2.34697
upperback 3.19526 -1.56864 1.1756
thorax 1.09984 -0.839065 2.56968
lowerneck -11.5017 1.19457 -1.67334
upperneck 34.4977 2.23713 -0.28465
head 13.5408 0.698926 0.504459
rclavicle 2.29099e-014 -1.39149e-014
rhumerus -27.1624 -17.2287 -78.9774
rradius 21.3799
rwrist 39.3154
rhand -20.3227 -28.2497
rfingers 7.12502
rthumb 6.02826 -58.1439
lclavicle 2.29099e-014 -1.39149e-014
lhumerus -16.8746 11.6554 81.8774
lradius 13.9268
lwrist 1.01284
lhand -28.445 -9.09721
lfingers 7.12502
lthumb -1.81567 20.8748
rfemur -26.5617 0.0377286 16.6155
rtibia 46.1808
rfoot -16.9822 0.93097
rtoes 6.53215
lfemur -20.7108 10.2668 -19.5577
ltibia 42.2295
lfoot -18.9012 -0.856869
ltoes -6.37015
